<?xml version="1.0" encoding="iso-8859-1"?>
<!-- Generator: Adobe Illustrator 19.0.0, SVG Export Plug-In . SVG Version: 6.00 Build 0)  -->
<svg version="1.1" id="Layer_1" xmlns="http://www.w3.org/2000/svg" xmlns:xlink="http://www.w3.org/1999/xlink" x="0px" y="0px"
	 viewBox="0 0 512 512" style="enable-background:new 0 0 512 512;" xml:space="preserve">
<g>
	<g>
		<path d="M0,79.175v353.65h512V79.175H0z M263.918,190.513c32.659,3.926,58.062,31.787,58.062,65.487
			c0,33.7-25.403,61.561-58.062,65.487V190.513z M15.835,148.085C71.817,152.154,116.124,198.998,116.124,256
			S71.817,359.847,15.835,363.915V148.085z M248.082,321.487c-32.659-3.926-58.062-31.787-58.062-65.487
			c0-33.7,25.403-61.561,58.062-65.487V321.487z M248.082,174.575c-41.411,3.996-73.897,38.984-73.897,81.425
			s32.486,77.428,73.897,81.425v79.565H15.835v-37.208c64.72-4.098,116.124-58.045,116.124-123.782S80.555,136.317,15.835,132.218
			V95.01h232.247V174.575z M496.165,363.916c-55.982-4.069-100.289-50.913-100.289-107.915c0-57.002,44.307-103.848,100.289-107.916
			V363.916z M496.165,132.218c-64.72,4.098-116.124,58.045-116.124,123.782s51.404,119.683,116.124,123.782v37.208H263.918v-79.565
			c41.411-3.996,73.897-38.984,73.897-81.425s-32.486-77.428-73.897-81.425V95.01h232.247V132.218z"/>
	</g>
</g>
<g>
</g>
<g>
</g>
<g>
</g>
<g>
</g>
<g>
</g>
<g>
</g>
<g>
</g>
<g>
</g>
<g>
</g>
<g>
</g>
<g>
</g>
<g>
</g>
<g>
</g>
<g>
</g>
<g>
</g>
</svg>
