<?xml version="1.0" encoding="iso-8859-1"?>
<!-- Generator: Adobe Illustrator 19.0.0, SVG Export Plug-In . SVG Version: 6.00 Build 0)  -->
<svg version="1.1" id="Layer_1" xmlns="http://www.w3.org/2000/svg" xmlns:xlink="http://www.w3.org/1999/xlink" x="0px" y="0px"
	 viewBox="0 0 512 512" style="enable-background:new 0 0 512 512;" xml:space="preserve">
<g transform="translate(1 1)">
	<g>
		<g>
			<path d="M192.707,163.693c-3.413-3.413-8.533-3.413-11.947,0l-85.333,85.333c-2.56,2.56-3.413,5.973-1.707,9.387
				c0.853,1.707,1.707,2.56,2.56,3.413l84.48,84.48c1.707,1.707,3.413,2.56,5.973,2.56s4.267-0.853,5.973-2.56
				c3.413-3.413,3.413-8.533,0-11.947L113.347,255l79.36-79.36C196.12,172.227,196.12,167.107,192.707,163.693z"/>
			<path d="M413.72,248.173l-84.48-84.48c-3.413-3.413-8.533-3.413-11.947,0s-3.413,8.533,0,11.947l79.36,79.36l-79.36,79.36
				c-3.413,3.413-3.413,8.533,0,11.947c1.707,1.707,3.413,2.56,5.973,2.56s5.12-0.853,5.973-2.56l85.333-85.333
				c2.56-2.56,3.413-5.973,1.707-9.387C415.427,249.88,414.573,249.027,413.72,248.173z"/>
			<path d="M282.307,161.987c-4.267-0.853-8.533,1.707-10.24,5.973l-51.2,170.667c-0.853,4.267,1.707,8.533,5.973,10.24
				c0.853,0,1.707,0,2.56,0c3.413,0,6.827-2.56,7.68-5.973l51.2-170.667C289.133,167.96,286.573,163.693,282.307,161.987z"/>
			<path d="M400.067-1H109.933C48.493-1-1,48.493-1,109.933v290.133C-1,461.507,48.493,511,109.933,511h290.133
				C461.507,511,511,461.507,511,400.067V109.933C511,48.493,461.507-1,400.067-1z M493.933,400.067
				c0,52.053-41.813,93.867-93.867,93.867H109.933c-52.053,0-93.867-41.813-93.867-93.867V109.933
				c0-52.053,41.813-93.867,93.867-93.867h290.133c52.053,0,93.867,41.813,93.867,93.867V400.067z"/>
		</g>
	</g>
</g>
<g>
</g>
<g>
</g>
<g>
</g>
<g>
</g>
<g>
</g>
<g>
</g>
<g>
</g>
<g>
</g>
<g>
</g>
<g>
</g>
<g>
</g>
<g>
</g>
<g>
</g>
<g>
</g>
<g>
</g>
</svg>
